<svg viewBox="0 0 512 512" xmlns="http://www.w3.org/2000/svg"><path d="M394 225a60.37 60.37 0 0 0-85.29 0l-12 12a67.44 67.44 0 0 0-19.6 52.27l.41 6a18.68 18.68 0 0 1-6.69 15.6l-19.36 16.43-11.77-10a24.65 24.65 0 0 1-8.8-20.58l.41-6a61.43 61.43 0 0 0-17.86-47.62l-41.23-41.23-16.74 16.74 27.26 27.25L170 258.61l-27.25-27.25-17.35 17.32 27.17 27.18-12.73 12.73-27.17-27.18-17.29 17.29 41.23 41.23a61.43 61.43 0 0 0 47.62 17.86l6-.41a24.65 24.65 0 0 1 20.58 8.8l7.69 9.06-61 51.79a38.71 38.71 0 0 0 24.82 68.42h1.74A38.75 38.75 0 0 0 212 461.58l48.35-57.05 46.67 55a32.79 32.79 0 0 0 23.64 11.71h1.46a32.71 32.71 0 0 0 21-57.82L294.73 364l13.43-15.85a18.66 18.66 0 0 1 15.56-6.65l6 .4A67.38 67.38 0 0 0 382 322.28l12-12a60.37 60.37 0 0 0 0-85.28Zm-12.72 72.56-12 12a49.43 49.43 0 0 1-38.32 14.37l-6-.41a36.63 36.63 0 0 0-30.57 13L198.22 450a20.71 20.71 0 1 1-29.12-29.2l113.29-96.17A36.73 36.73 0 0 0 295.45 294l-.41-6a49.44 49.44 0 0 1 14.37-38.32l12-12a42.31 42.31 0 1 1 59.84 59.84ZM251.89 178.17c.68 0 21.17-.27 25-.6 27-2.33 48.27-11.44 63.44-27.17 24-24.85 26.06-59.73 25.18-78.31a23.87 23.87 0 0 0-22.8-22.8c-18.59-.88-53.46 1.21-78.31 25.17a78.83 78.83 0 0 0-7.2 8 78.83 78.83 0 0 0-7.2-8c-24.85-24-59.73-26.06-78.31-25.17a23.87 23.87 0 0 0-22.8 22.8c-.88 18.58 1.21 53.45 25.17 78.31 17.8 18.43 43.94 27.77 77.83 27.77Zm25-90.75c17.7-17.06 42.68-20.29 59.06-20.29 2.12 0 4.1.05 5.9.14a6 6 0 0 1 5.7 5.73c.74 15.68-.88 45-20.16 65-11.72 12.15-28.58 19.37-50.21 21.54a24.66 24.66 0 0 0 .6-5.13c.23-21.48-3.23-39.92-10.32-55.16a61.88 61.88 0 0 1 9.45-11.83ZM166.89 73a6 6 0 0 1 5.68-5.68c15.68-.75 45 .88 65 20.15 13.5 13 20.9 32.35 22.08 57.53a67.86 67.86 0 0 0-32.15-25.2l-5.55 16.78c.86.3 17.55 6.18 26.06 23.59-26.82-.65-47.33-8.12-60.92-22.21-19.32-20.04-20.95-49.33-20.2-64.96Z" fill="#00ff40" class="fill-000000" data-darkreader-inline-fill="" style="--darkreader-inline-fill: #00ea5f;"></path></svg>